<?xml version="1.0" encoding="UTF-8"?>
<!DOCTYPE svg PUBLIC "-//W3C//DTD SVG 1.1//EN" "http://www.w3.org/Graphics/SVG/1.1/DTD/svg11.dtd">
<!-- Creator: CorelDRAW 2017 -->
<svg xmlns="http://www.w3.org/2000/svg" xml:space="preserve" width="0.663094in" height="0.554413in" version="1.1" style="shape-rendering:geometricPrecision; text-rendering:geometricPrecision; image-rendering:optimizeQuality; fill-rule:evenodd; clip-rule:evenodd"
viewBox="0 0 84 70"
 xmlns:xlink="http://www.w3.org/1999/xlink">
 <defs>
  <style type="text/css">
   <![CDATA[
    .fil1 {fill:#FF7247}
    .fil0 {fill:#FF7247;fill-rule:nonzero}
   ]]>
  </style>
 </defs>
 <g id="Layer_x0020_1">
  <metadata id="CorelCorpID_0Corel-Layer"/>
  <g id="_2304123143776">
   <path class="fil0" d="M30 57l0 -21c0,-1 0,-3 0,-4 0,-2 -1,-3 -1,-5 -1,-2 -2,-3 -3,-4 -1,-1 -3,-1 -5,-1 -1,0 -2,0 -4,1 -1,0 -2,1 -3,2 -1,1 -2,2 -2,4 -1,2 -1,4 -1,6l-6 -2c0,-4 1,-7 2,-10 1,-3 3,-5 6,-7 3,-2 6,-3 10,-3 3,0 6,1 8,2 2,1 4,2 5,4 1,2 2,3 3,5 1,2 1,4 1,5 0,2 0,3 0,4l0 24 -10 0zm-30 0l0 -57 9 0 0 30 1 0 0 27 -10 0z"/>
   <path class="fil0" d="M53 13l0 21c0,1 0,3 0,4 0,2 1,3 1,5 1,2 2,3 3,4 1,1 3,1 5,1 1,0 2,0 4,-1 1,0 2,-1 3,-2 1,-1 2,-2 2,-4 1,-2 1,-4 1,-6l6 2c0,4 -1,7 -2,10 -1,3 -3,5 -6,7 -3,2 -6,3 -10,3 -3,0 -6,-1 -8,-2 -2,-1 -4,-2 -5,-4 -1,-2 -2,-3 -3,-5 -1,-2 -1,-4 -1,-5 0,-2 0,-3 0,-4l0 -24 10 0zm30 0l0 44 -9 0 0 -17 -1 0 0 -27 10 0z"/>
   <polygon class="fil1" points="84,70 84,61 0,61 0,70 "/>
  </g>
 </g>
</svg>
